<?xml version="1.0" standalone="no"?>
<!DOCTYPE svg PUBLIC "-//W3C//DTD SVG 1.1//EN" "http://www.w3.org/Graphics/SVG/1.1/DTD/svg11.dtd" >
<svg xmlns="http://www.w3.org/2000/svg" xmlns:xlink="http://www.w3.org/1999/xlink" version="1.1">
<metadata>
Created by FontForge 20170924 at Tue Mar 20 05:28:51 1928
 By www-data
TrueType font: Copyright (c) 1991, 1994 ParaGraph. Technical realization by TeamAXis Corp. Hinted with AXisType ToolKit: Copyright (c) 1992, 1994 by Dmitry Komissarov. Avant Garde Gothic is a registered trade mark of International Typeface Corporation.
</metadata>
<defs>
<font id="AvantGardeCTT-Bold" horiz-adv-x="560" >
  <font-face 
    font-family="AvantGardeCTT"
    font-weight="700"
    font-stretch="normal"
    units-per-em="1000"
    panose-1="0 0 0 0 0 0 0 0 0 0"
    ascent="800"
    descent="-200"
    x-height="554"
    cap-height="740"
    bbox="-46 -215 1248 980"
    underline-thickness="50"
    underline-position="-125"
    unicode-range="U+0020-2122"
  />
<missing-glyph horiz-adv-x="980" 
d="M61 0v980h858v-980h-858zM858 61v858h-736v-858h736z" />
    <glyph glyph-name=".notdef" horiz-adv-x="980" 
d="M61 0v980h858v-980h-858zM858 61v858h-736v-858h736z" />
    <glyph glyph-name=".null" horiz-adv-x="0" 
 />
    <glyph glyph-name="nonmarkingreturn" horiz-adv-x="233" 
 />
    <glyph glyph-name="space" unicode=" " horiz-adv-x="233" 
 />
    <glyph glyph-name="exclam" unicode="!" horiz-adv-x="280" 
d="M206 188h-133v552h133v-552zM206 0h-133v127h133v-127z" />
    <glyph glyph-name="quotedbl" unicode="&#x22;" horiz-adv-x="360" 
d="M285 514h-75v226h75v-226zM150 514h-75v226h75v-226z" />
    <glyph glyph-name="numbersign" unicode="#" 
d="M556 521l-19 -98h-114l-19 -92h114l-20 -98h-114l-48 -233h-90l48 233h-86l-48 -233h-90l48 233h-114l20 98h114l19 92h-114l19 98h114l45 219h90l-45 -219h86l45 219h90l-45 -219h114zM333 423h-86l-19 -92h86z" />
    <glyph glyph-name="dollar" unicode="$" 
d="M494 249q0 -74 -40.5 -128t-107.5 -73v-133h-125v133q-67 15 -113 66q-49 54 -49 123v12h133q0 -37 24.5 -61.5t61.5 -24.5q39 0 62.5 24.5t23.5 62.5q0 33 -22 56q-25 26 -94.5 47.5t-101.5 48.5q-58 49 -58 140q0 68 34.5 117t98.5 65v131h125v-131q57 -15 91 -62.5
t34 -107.5h-125q0 25 -18 42.5t-48 17.5t-48.5 -19.5t-18.5 -46.5q0 -40 36 -63q19 -12 68 -26q69 -20 109 -54q68 -57 68 -156z" />
    <glyph glyph-name="percent" unicode="%" horiz-adv-x="860" 
d="M835 162q0 -75 -52.5 -127.5t-127.5 -52.5t-127.5 52.5t-52.5 127.5t52.5 127.5t127.5 52.5t127.5 -52.5t52.5 -127.5zM631 740l-306 -740h-102l306 740h102zM380 573q0 -75 -52.5 -127.5t-126.5 -52.5t-127 53t-53 127q0 75 52.5 127.5t127.5 52.5q74 0 126.5 -52.5
t52.5 -127.5zM724 162q0 29 -20 49t-49 20t-49 -20t-20 -49t20 -49t49 -20t49 20t20 49zM269 573q0 29 -20 49t-48 20t-48.5 -20.5t-20.5 -48.5q0 -27 20 -48t48 -21q27 0 48 20t21 49z" />
    <glyph glyph-name="ampersand" unicode="&#x26;" horiz-adv-x="680" 
d="M664 71l-97 -85l-101 106l-11 -16q-27 -38 -58 -60q-49 -34 -116 -34q-104 0 -175 65t-71 168q0 80 46 139q36 46 93 74q-26 25 -41 53q-21 39 -21 81q0 81 54 136t134 55q79 0 134 -52t55 -130q0 -65 -38 -116q-29 -39 -78 -66l68 -76l72 123h147l-127 -223zM363 564
q0 26 -16 44.5t-48 18.5q-31 0 -45.5 -20t-14.5 -42q0 -25 21 -53q6 -8 25 -27l4 -4q41 15 59 39q15 19 15 44zM373 193l-115 129l-20 -9q-36 -16 -55 -48q-15 -25 -15 -56q0 -42 28.5 -71.5t72.5 -29.5q28 0 51.5 16.5t44.5 54.5z" />
    <glyph glyph-name="quotesingle" unicode="'" horiz-adv-x="220" 
d="M150 514h-76v226h76v-226z" />
    <glyph glyph-name="parenleft" unicode="(" horiz-adv-x="380" 
d="M349 -128q-135 55 -210 189q-65 117 -65 245q0 129 64 244q75 135 211 190v-139q-82 -64 -116 -164q-22 -64 -22 -131q0 -69 21 -131q34 -99 117 -164v-139z" />
    <glyph glyph-name="parenright" unicode=")" horiz-adv-x="380" 
d="M306 306q0 -129 -64 -244q-75 -135 -211 -190v139q82 64 116 164q22 64 22 131q0 69 -21 131q-34 99 -117 164v139q135 -55 210 -189q65 -117 65 -245z" />
    <glyph glyph-name="asterisk" unicode="*" horiz-adv-x="440" 
d="M371 570l-102 6l56 -84l-56 -36l-47 92l-44 -92l-62 30l54 91l-100 -7v69l100 -6l-54 89l61 30l45 -90l46 91l57 -35l-54 -85l100 7v-70z" />
    <glyph glyph-name="plus" unicode="+" horiz-adv-x="600" 
d="M552 263h-194v-198h-116v198h-194v116h194v191h116v-191h194v-116z" />
    <glyph glyph-name="comma" unicode="," horiz-adv-x="280" 
d="M206 5v-12q0 -30 -5 -47q-8 -29 -31 -50q-39 -36 -95 -36v67q25 0 41 14.5t16 41.5v17h-59v133h133v-128z" />
    <glyph glyph-name="hyphen" unicode="-" horiz-adv-x="420" 
d="M349 259h-278v118h278v-118z" />
    <glyph glyph-name="period" unicode="." horiz-adv-x="280" 
d="M206 0h-133v133h133v-133z" />
    <glyph glyph-name="slash" unicode="/" horiz-adv-x="460" 
d="M443 740l-323 -868h-94l323 868h94z" />
    <glyph glyph-name="zero" unicode="0" 
d="M528 248q0 -123 -66.5 -194.5t-181.5 -71.5q-114 0 -181 71t-67 195v239q0 123 66.5 194.5t181.5 71.5q114 0 181 -71t67 -195v-239zM395 248v239q0 84 -44 118q-28 22 -71 22q-44 0 -71 -21q-44 -34 -44 -119v-239q0 -84 44 -118q28 -22 71 -22q44 0 71 21q44 34 44 119
z" />
    <glyph glyph-name="one" unicode="1" 
d="M440 0h-133v554l-152 -199l-105 80l237 305h153v-740z" />
    <glyph glyph-name="two" unicode="2" 
d="M520 0h-478v126l255 237q47 44 61 63q29 40 29 89q0 46 -25 77q-29 35 -81 35q-59 0 -89 -46q-25 -39 -25 -97h-133q0 111 56 184q65 85 187 85q106 0 174.5 -65.5t68.5 -174.5q0 -67 -34.5 -127.5t-116.5 -133.5l-141 -126h292v-126z" />
    <glyph glyph-name="three" unicode="3" 
d="M518 227q0 -109 -72.5 -177t-179.5 -68q-105 0 -178 68t-73 169h133q5 -46 33 -76q33 -35 86 -35q51 0 84.5 34.5t33.5 85.5q0 63 -38 94.5t-107 31.5h-23v126h19q34 0 56 10q40 19 40 67q0 31 -16.5 50.5t-45.5 19.5q-27 0 -47.5 -17.5t-20.5 -49.5h-133q0 85 55 139
t144 54q84 0 140.5 -53.5t56.5 -143.5q0 -35 -11 -63q-16 -40 -53 -69q58 -24 87.5 -75.5t29.5 -121.5z" />
    <glyph glyph-name="four" unicode="4" 
d="M530 110h-78v-110h-133v110h-319v109l340 521h112v-504h78v-126zM319 236v278l-177 -278h177z" />
    <glyph glyph-name="five" unicode="5" 
d="M520 241q0 -112 -71.5 -185.5t-183.5 -73.5q-107 0 -177 70q-66 66 -76 167h133q8 -49 39 -80t80 -31q54 0 88.5 36.5t34.5 98.5q0 56 -34.5 92.5t-89.5 36.5q-29 0 -54.5 -12.5t-44.5 -40.5l-119 33l70 388h341l-7 -126h-235l-23 -137q22 11 45 16t47 5q106 0 173 -77
q64 -73 64 -180z" />
    <glyph glyph-name="six" unicode="6" 
d="M534 245q0 -113 -70 -188t-185 -75q-112 0 -184.5 74.5t-72.5 189.5q0 39 12.5 82.5t41.5 88.5l211 323h157l-165 -252l37 3q92 0 153 -65q65 -69 65 -181zM401 241q0 56 -33 93t-90 37q-56 0 -89.5 -37.5t-33.5 -92.5q0 -58 33.5 -95.5t89.5 -37.5t89.5 37.5t33.5 95.5z
" />
    <glyph glyph-name="seven" unicode="7" 
d="M500 614l-267 -614h-148l276 614h-296v126h435v-126z" />
    <glyph glyph-name="eight" unicode="8" 
d="M526 221q0 -107 -70 -173t-176 -66q-105 0 -175.5 66t-70.5 173q0 67 34 118q31 47 87 72q-38 25 -56 62.5t-18 76.5q0 79 47 136q55 67 152 67q87 0 143 -57t56 -146q0 -47 -23 -85q-19 -32 -51 -54q50 -23 81 -63q40 -52 40 -127zM358 547q0 34 -22 57t-55 23
q-34 0 -56.5 -22.5t-22.5 -57.5t22.5 -57.5t56.5 -22.5t55.5 22.5t21.5 57.5zM393 223q0 50 -32 84t-81 34q-47 0 -80 -34t-33 -84q0 -49 32 -82t81 -33t81 33t32 82z" />
    <glyph glyph-name="nine" unicode="9" 
d="M534 491q0 -61 -23 -115q-13 -29 -46 -80l-196 -296h-157l169 251l-41 -3q-90 0 -152 66q-66 70 -66 178q0 113 70 187t185 74q113 0 185 -74t72 -188zM401 496q0 57 -33 94t-90 37q-56 0 -89.5 -36.5t-33.5 -94.5q0 -60 38 -96q34 -32 85 -32q56 0 89.5 36.5t33.5 91.5z
" />
    <glyph glyph-name="colon" unicode=":" horiz-adv-x="280" 
d="M206 369h-133v133h133v-133zM206 0h-133v133h133v-133z" />
    <glyph glyph-name="semicolon" unicode=";" horiz-adv-x="280" 
d="M206 369h-133v133h133v-133zM206 5v-12q0 -30 -5 -47q-8 -29 -31 -50q-39 -36 -95 -36v67q25 0 41 14.5t16 41.5v17h-59v133h133v-128z" />
    <glyph glyph-name="less" unicode="&#x3c;" horiz-adv-x="600" 
d="M552 42l-509 225v98l509 225v-111l-362 -163l362 -163v-111z" />
    <glyph glyph-name="equal" unicode="=" horiz-adv-x="600" 
d="M552 358h-504v115h504v-115zM552 163h-504v115h504v-115z" />
    <glyph glyph-name="greater" unicode="&#x3e;" horiz-adv-x="600" 
d="M557 267l-509 -225v111l362 163l-362 163v111l509 -225v-98z" />
    <glyph glyph-name="question" unicode="?" 
d="M491 522q0 -62 -31 -105q-8 -11 -70 -73q-29 -28 -44 -60q-19 -41 -19 -96h-133q0 76 22 131q18 45 52 79l62 58q28 31 28 68q0 44 -23 72q-26 31 -71 31q-43 0 -68 -30t-25 -75h-133q0 94 54 158q62 73 172 73q113 0 174 -71q53 -62 53 -160zM327 0h-133v127h133v-127z
" />
    <glyph glyph-name="at" unicode="@" horiz-adv-x="740" 
d="M745 422q0 -122 -72 -201q-65 -72 -148 -72q-57 0 -80 48q-21 -21 -54.5 -34.5t-63.5 -13.5q-62 0 -108 39q-58 49 -58 141q0 96 56 163q60 71 152 71q52 0 88 -24q21 -14 36 -36l11 51h96l-54 -277l-3 -25l2 -7q5 -8 18 -8q40 0 73 53t33 133q0 126 -88 197
q-78 63 -192 63q-136 0 -223 -89t-87 -227q0 -142 94 -230q90 -85 225 -85q45 0 87 12t79 32l36 -56q-50 -33 -113 -47q-48 -11 -100 -11q-168 0 -276 108t-108 277t108.5 277.5t280.5 108.5q148 0 245 -81q108 -90 108 -250zM465 369q0 45 -25 68q-21 19 -51 19
q-37 0 -67 -25q-39 -32 -39 -90q0 -38 20.5 -61.5t57.5 -23.5q20 0 42.5 10t34.5 24.5t19.5 33.5t7.5 45z" />
    <glyph glyph-name="A" unicode="A" horiz-adv-x="740" 
d="M733 0h-151l-76 191h-272l-76 -191h-151l308 740h110zM454 324l-84 216l-84 -216h168z" />
    <glyph glyph-name="B" unicode="B" horiz-adv-x="580" 
d="M548 225q0 -96 -58 -153q-74 -72 -237 -72h-185v740h178q122 0 187 -47q70 -51 70 -148q0 -59 -33 -101q-19 -24 -48 -40q60 -20 93 -68t33 -111zM366 531q0 47 -37 65q-23 11 -60 11h-64v-152h64q45 0 71 19.5t26 56.5zM411 226q0 35 -18 58q-29 38 -99 38h-89v-189h89
q36 0 64 12q53 23 53 81z" />
    <glyph glyph-name="C" unicode="C" horiz-adv-x="780" 
d="M760 528h-156q-33 42 -73 64q-50 28 -113 28q-108 0 -179.5 -74.5t-71.5 -175.5q0 -106 72.5 -180.5t179.5 -74.5q52 0 98 21t80 65h159q-47 -101 -133 -158q-91 -61 -208 -61q-179 0 -289 130q-96 114 -96 258q0 141 95 253q111 130 292 130q116 0 206 -59t137 -166z
" />
    <glyph glyph-name="D" unicode="D" horiz-adv-x="700" 
d="M670 366q0 -69 -19 -130q-31 -99 -106 -158q-100 -78 -269 -78h-208v740h205q157 0 254 -65q79 -52 115 -148q28 -73 28 -161zM533 366q0 151 -106 208q-61 33 -162 33h-60v-474h67q99 0 158 32q103 56 103 201z" />
    <glyph glyph-name="E" unicode="E" horiz-adv-x="520" 
d="M465 0h-397v740h397v-133h-260v-171h249v-133h-249v-170h260v-133z" />
    <glyph glyph-name="F" unicode="F" horiz-adv-x="480" 
d="M444 607h-239v-171h228v-133h-228v-303h-137v740h376v-133z" />
    <glyph glyph-name="G" unicode="G" horiz-adv-x="840" 
d="M818 377q0 -153 -90 -263q-108 -132 -303 -132q-188 0 -298 124q-97 109 -97 259q0 148 99 261q112 127 294 127q127 0 222 -61t136 -170h-164q-29 48 -77.5 73t-116.5 25q-122 0 -193 -81q-63 -71 -63 -169q0 -102 67 -175q74 -80 195 -80q71 0 129 33t87 100h-309v129
h482z" />
    <glyph glyph-name="H" unicode="H" horiz-adv-x="680" 
d="M612 0h-137v310h-270v-310h-137v740h137v-297h270v297h137v-740z" />
    <glyph glyph-name="I" unicode="I" horiz-adv-x="280" 
d="M208 0h-137v740h137v-740z" />
    <glyph glyph-name="J" unicode="J" horiz-adv-x="480" 
d="M412 218q0 -114 -48 -173q-51 -63 -151 -63q-84 0 -145 54t-61 134h137q6 -55 63 -55q44 0 59 33q9 20 9 61v531h137v-522z" />
    <glyph glyph-name="K" unicode="K" horiz-adv-x="620" 
d="M599 0h-164l-230 324v-324h-137v740h137v-321l230 321h164l-279 -364z" />
    <glyph glyph-name="L" unicode="L" horiz-adv-x="440" 
d="M431 0h-363v740h137v-607h226v-133z" />
    <glyph glyph-name="M" unicode="M" horiz-adv-x="900" 
d="M832 0h-137v554l-187 -554h-116l-187 554v-554h-137v740h186l196 -566l196 566h186v-740z" />
    <glyph glyph-name="N" unicode="N" horiz-adv-x="740" 
d="M672 0h-137l-330 500v-500h-137v740h137l330 -500v500h137v-740z" />
    <glyph glyph-name="O" unicode="O" horiz-adv-x="840" 
d="M810 366q0 -161 -112.5 -272.5t-277.5 -111.5t-277.5 111.5t-112.5 272.5q0 162 112.5 274.5t277.5 112.5t277.5 -112.5t112.5 -274.5zM673 369q0 104 -72.5 177.5t-180.5 73.5q-109 0 -181 -73t-72 -178q0 -106 73 -180t179 -74q109 0 181.5 74.5t72.5 179.5z" />
    <glyph glyph-name="P" unicode="P" 
d="M540 509q0 -90 -51 -149q-69 -80 -214 -80h-70v-280h-137v740h207q154 0 221 -89q44 -59 44 -142zM403 510q0 59 -45 82q-29 15 -72 15h-81v-194h81q61 0 89 25t28 72z" />
    <glyph glyph-name="Q" unicode="Q" horiz-adv-x="840" 
d="M826 -18q-51 0 -87 8q-57 13 -105 48q-54 -32 -120 -46q-47 -10 -92 -10q-162 0 -277 111t-115 272q0 151 96 262q109 126 291 126q170 0 281.5 -106.5t111.5 -281.5q0 -84 -28 -150q-21 -49 -57 -90q13 -8 39 -14t62 -6v-123zM673 363q0 100 -62 173q-71 84 -189 84
q-110 0 -182.5 -70.5t-72.5 -175.5v-19t2 -21q51 13 102 13q107 0 205 -47q76 -36 140 -96q21 22 35 52q22 47 22 107zM519 139q-56 44 -120 70.5t-120 26.5q-35 0 -68 -12q39 -57 106 -85q56 -24 118 -24q20 0 40.5 5.5t43.5 18.5z" />
    <glyph glyph-name="R" unicode="R" horiz-adv-x="580" 
d="M568 0h-169l-192 273l-2 -273h-137v740h214q162 0 232 -91q46 -60 46 -144q0 -91 -55 -157t-145 -75zM423 497q0 69 -56 95q-32 15 -81 15h-81v-220h81q50 0 80 14q57 26 57 96z" />
    <glyph glyph-name="S" unicode="S" horiz-adv-x="520" 
d="M493 216q0 -99 -67.5 -166.5t-172.5 -67.5q-92 0 -161 56q-78 64 -78 170h143q0 -42 29 -67.5t70 -25.5q45 0 72.5 26.5t27.5 66.5q0 49 -37 81q-25 21 -71 37q-94 32 -134 63q-73 56 -73 154q0 81 55 141q63 69 165 69q100 0 160 -66q54 -60 54 -144h-141q0 31 -18 52
q-21 25 -59 25q-39 0 -59 -22.5t-20 -55.5q0 -39 32 -62q19 -14 63 -28q96 -30 138 -62q82 -62 82 -174z" />
    <glyph glyph-name="T" unicode="T" horiz-adv-x="420" 
d="M416 607h-137v-607h-137v607h-137v133h411v-133z" />
    <glyph glyph-name="U" unicode="U" horiz-adv-x="640" 
d="M572 278q0 -149 -75 -227q-66 -69 -177 -69q-99 0 -164 56q-88 76 -88 240v462h137v-467q0 -67 16 -101q27 -57 100 -57q72 0 98 57q16 35 16 101v467h137v-462z" />
    <glyph glyph-name="V" unicode="V" horiz-adv-x="700" 
d="M693 740l-286 -740h-114l-286 740h144l199 -563l199 563h144z" />
    <glyph glyph-name="W" unicode="W" horiz-adv-x="900" 
d="M895 740l-215 -740h-109l-121 489l-121 -489h-109l-215 740h140l129 -518l126 518h100l126 -518l129 518h140z" />
    <glyph glyph-name="X" unicode="X" horiz-adv-x="680" 
d="M676 0h-160l-176 256l-175 -256h-160l255 370l-255 370h160l175 -257l176 257h160l-256 -370z" />
    <glyph glyph-name="Y" unicode="Y" horiz-adv-x="620" 
d="M622 740l-243 -467v-273h-137v273l-243 467h150l162 -341l161 341h150z" />
    <glyph glyph-name="Z" unicode="Z" horiz-adv-x="500" 
d="M480 0h-462v133l282 474h-266v133h430v-133l-282 -474h298v-133z" />
    <glyph glyph-name="bracketleft" unicode="[" horiz-adv-x="320" 
d="M292 -128q-52 10 -93.5 35t-70.5 64q-34 46 -46 108q-8 41 -8 95v264q0 59 7 94q12 61 47 109q27 37 70 63t94 36v-143q-45 -15 -63 -50.5t-18 -108.5v-264q0 -72 18 -108t63 -51v-143z" />
    <glyph glyph-name="backslash" unicode="\" horiz-adv-x="640" 
d="M503 0h-104l-315 740h104z" />
    <glyph glyph-name="bracketright" unicode="]" horiz-adv-x="320" 
d="M246 174q0 -59 -7 -94q-12 -61 -47 -109q-27 -37 -70 -63t-94 -36v143q45 15 63 50.5t18 108.5v264q0 72 -18 108t-63 51v143q52 -10 93.5 -35t70.5 -64q34 -46 46 -108q8 -41 8 -95v-264z" />
    <glyph glyph-name="asciicircum" unicode="^" horiz-adv-x="600" 
d="M590 180h-134l-156 414l-156 -414h-134l230 560h120z" />
    <glyph glyph-name="underscore" unicode="_" horiz-adv-x="500" 
d="M500 -138h-500v90h500v-90z" />
    <glyph glyph-name="grave" unicode="`" horiz-adv-x="420" 
d="M346 705l-53 -92l-226 125l57 102z" />
    <glyph glyph-name="a" unicode="a" horiz-adv-x="660" 
d="M606 0h-122v75q-33 -45 -81.5 -69t-105.5 -24q-110 0 -188 78q-83 83 -83 212t79.5 214.5t195.5 85.5q120 0 181 -96l2 78h122v-554zM481 278q0 73 -43.5 120.5t-115.5 47.5q-71 0 -117 -49t-46 -125q0 -71 45.5 -117.5t117.5 -46.5q71 0 115 47t44 123z" />
    <glyph glyph-name="b" unicode="b" horiz-adv-x="660" 
d="M634 277q0 -115 -65 -198q-76 -97 -207 -97q-57 0 -104.5 22t-79.5 71l-2 -75h-122v740h133v-244q68 76 171 76q135 0 210 -94q66 -83 66 -201zM501 276q0 74 -43 122t-114 48q-70 0 -117.5 -45.5t-47.5 -116.5q0 -75 46.5 -125.5t118.5 -50.5q70 0 113.5 47.5
t43.5 120.5z" />
    <glyph glyph-name="c" unicode="c" horiz-adv-x="640" 
d="M610 180q-32 -91 -102.5 -144.5t-171.5 -53.5q-146 0 -231 97q-75 85 -75 202q0 111 72 194q84 97 229 97q103 0 177 -55t102 -147h-150q-19 38 -52.5 57t-78.5 19q-77 0 -121.5 -48.5t-44.5 -118.5q0 -73 45 -122t121 -49q47 0 79 18t52 54h150z" />
    <glyph glyph-name="d" unicode="d" horiz-adv-x="660" 
d="M606 0h-122v75q-32 -42 -72 -65q-49 -28 -112 -28q-112 0 -193 84.5t-81 208.5q0 129 81 213t197 84q53 0 94 -18.5t73 -56.5l2 243h133v-740zM481 277q0 73 -46 121t-116 48q-69 0 -114.5 -46.5t-45.5 -122.5q0 -73 45 -121t115 -48q71 0 116.5 47.5t45.5 121.5z" />
    <glyph glyph-name="e" unicode="e" horiz-adv-x="640" 
d="M610 277v-15q0 -21 -3 -44h-434q13 -50 52.5 -80t92.5 -30q35 0 65 11q36 14 59 41h150q-37 -87 -109.5 -132.5t-159.5 -45.5q-138 0 -221 98q-72 85 -72 193q0 110 72 197q84 102 223 102q126 0 205.5 -84.5t79.5 -210.5zM471 336q-14 52 -54 81t-92 29q-54 0 -95.5 -30
t-58.5 -80h300z" />
    <glyph glyph-name="f" unicode="f" horiz-adv-x="280" 
d="M274 436h-84v-436h-133v436h-47v118h47v6q0 91 52.5 141.5t139.5 50.5h25v-133h-17q-32 0 -49.5 -17.5t-17.5 -41.5v-6h84v-118z" />
    <glyph glyph-name="g" unicode="g" horiz-adv-x="660" 
d="M606 84q0 -142 -91 -224q-83 -75 -207 -75q-101 0 -176.5 53t-100.5 150h153q12 -37 45.5 -57t78.5 -20q69 0 117 44t48 106v20q-34 -45 -74.5 -66t-92.5 -21q-116 0 -198 85t-82 206q0 126 82.5 206.5t200.5 80.5q46 0 83 -15q58 -23 90 -79l2 76h122v-470zM481 281
q0 75 -44 120t-117 45q-75 0 -120 -49q-41 -45 -41 -111q0 -70 41 -116q45 -50 120 -50q73 0 117 46t44 115z" />
    <glyph glyph-name="h" unicode="h" horiz-adv-x="600" 
d="M546 0h-133v294q0 84 -36 122q-28 30 -75 30q-71 0 -98 -57q-17 -35 -17 -95v-294h-133v740h133v-228q28 33 67 46.5t76 13.5q98 0 157 -66t59 -182v-324z" />
    <glyph glyph-name="i" unicode="i" horiz-adv-x="240" 
d="M187 618h-133v122h133v-122zM187 0h-133v554h133v-554z" />
    <glyph glyph-name="j" unicode="j" horiz-adv-x="260" 
d="M206 618h-133v122h133v-122zM206 28q0 -129 -79 -182q-47 -31 -109 -31v129q36 -5 48 27q7 18 7 57v526h133v-526z" />
    <glyph glyph-name="k" unicode="k" horiz-adv-x="580" 
d="M555 0h-178l-190 259v-259h-133v740h133v-447l178 261h157l-200 -271z" />
    <glyph glyph-name="l" unicode="l" horiz-adv-x="240" 
d="M187 0h-133v740h133v-740z" />
    <glyph glyph-name="m" unicode="m" horiz-adv-x="940" 
d="M887 0h-133v294q0 61 -15 94q-26 58 -94 58q-66 0 -92 -57q-16 -35 -16 -95v-294h-133v294q0 61 -15 94q-26 58 -94 58q-66 0 -92 -57q-16 -35 -16 -95v-294h-133v554h122v-51q28 38 67.5 53.5t78.5 15.5q47 0 87 -19q48 -23 75 -67q27 38 66 59q49 27 111 27
q103 0 164.5 -65.5t61.5 -182.5v-324z" />
    <glyph glyph-name="n" unicode="n" horiz-adv-x="600" 
d="M546 0h-133v294q0 84 -36 122q-28 30 -75 30q-71 0 -98 -57q-17 -35 -17 -95v-294h-133v554h122v-51q25 28 50 43q45 26 104 26q98 0 157 -66t59 -182v-324z" />
    <glyph glyph-name="o" unicode="o" horiz-adv-x="640" 
d="M614 276q0 -122 -84 -208t-210 -86q-125 0 -209.5 85.5t-84.5 208.5t83.5 209.5t210.5 86.5q126 0 210 -86t84 -210zM481 276q0 71 -44 120.5t-117 49.5q-72 0 -116.5 -49.5t-44.5 -120.5t44 -119.5t117 -48.5q71 0 116 49t45 119z" />
    <glyph glyph-name="p" unicode="p" horiz-adv-x="660" 
d="M634 277q0 -120 -73 -204q-79 -91 -205 -91q-44 0 -81 14q-51 19 -86 64l-2 -245h-133v739h122v-72q33 51 92 74q42 16 88 16q117 0 197.5 -81.5t80.5 -213.5zM501 278q0 64 -37 111q-45 57 -122 57q-72 0 -117.5 -47.5t-45.5 -121.5q0 -78 44.5 -123.5t113.5 -45.5
q72 0 118 48t46 122z" />
    <glyph glyph-name="q" unicode="q" horiz-adv-x="660" 
d="M606 -185h-133v245q-35 -46 -88 -65q-37 -13 -81 -13q-122 0 -200 83t-78 212q0 128 81.5 211.5t195.5 83.5q58 0 104.5 -22.5t74.5 -67.5l2 72h122v-739zM481 275q0 75 -45 123t-117 48q-71 0 -115.5 -46.5t-44.5 -122.5q0 -73 41.5 -121t118.5 -48q71 0 116.5 47.5
t45.5 119.5z" />
    <glyph glyph-name="r" unicode="r" horiz-adv-x="320" 
d="M306 443q-60 0 -89.5 -36.5t-29.5 -107.5v-299h-133v554h122v-50q41 69 117 69q9 -1 13 -1v-129z" />
    <glyph glyph-name="s" unicode="s" horiz-adv-x="440" 
d="M420 173q0 -83 -55 -137t-145 -54q-92 0 -149 59q-52 54 -52 133h133q0 -30 21 -48t52 -18q28 0 45 15t17 42q0 23 -14 37q-10 10 -36 20q-14 5 -21 7l-36 12q-59 19 -90 45q-51 44 -51 115q0 65 45 114q52 57 142 57q76 0 127.5 -47.5t51.5 -122.5h-133q-2 18 -14 31
t-36 13q-25 0 -37.5 -13.5t-12.5 -33.5q0 -28 30 -44q15 -8 55 -18q72 -17 107 -43q56 -42 56 -121z" />
    <glyph glyph-name="t" unicode="t" horiz-adv-x="300" 
d="M287 436h-80v-436h-133v436h-65v118h65v186h133v-186h80v-118z" />
    <glyph glyph-name="u" unicode="u" horiz-adv-x="600" 
d="M546 0h-122v51q-33 -40 -79 -57q-32 -12 -67 -12q-136 0 -190 103q-34 65 -34 169v300h133v-282q0 -69 16 -105q26 -59 97 -59q70 0 96 58q17 38 17 106v282h133v-554z" />
    <glyph glyph-name="v" unicode="v" 
d="M553 554l-224 -554h-104l-224 554h148l128 -364l128 364h148z" />
    <glyph glyph-name="w" unicode="w" horiz-adv-x="799" 
d="M784 554l-200 -554h-82l-105 359l-105 -359h-82l-200 554h141l102 -338l92 338h104l92 -338l102 338h141z" />
    <glyph glyph-name="x" unicode="x" 
d="M556 0h-164l-112 179l-112 -179h-164l187 284l-172 270h155l105 -166l105 166h155l-176 -270z" />
    <glyph glyph-name="y" unicode="y" horiz-adv-x="580" 
d="M568 554l-318 -739h-143l102 237l-203 502h151l127 -355l133 355h151z" />
    <glyph glyph-name="z" unicode="z" horiz-adv-x="460" 
d="M442 0h-422v118l246 318h-218v118h377v-118l-246 -318h263v-118z" />
    <glyph glyph-name="braceleft" unicode="{" horiz-adv-x="340" 
d="M304 -128h-56q-26 0 -48.5 5t-42.5 21q-25 19 -31.5 44.5t-6.5 63.5v146q0 27 -2.5 41.5t-14.5 31.5t-28 26.5t-38 9.5v90q21 0 37.5 9.5t27.5 25.5t14.5 34t3.5 40v146q0 38 6.5 63.5t31.5 44.5q18 15 42.5 20.5t48.5 5.5h56v-90h-10q-57 0 -68 -48q-4 -18 -4 -41v-127
q0 -49 -14 -77q-21 -43 -76 -50q55 -8 76 -51q14 -28 14 -78v-127q0 -50 16.5 -69.5t55.5 -19.5h10v-90z" />
    <glyph glyph-name="bar" unicode="|" horiz-adv-x="600" 
d="M360 0h-119v740h119v-740z" />
    <glyph glyph-name="braceright" unicode="}" horiz-adv-x="340" 
d="M304 261q-21 0 -37.5 -9.5t-27.5 -25.5t-14.5 -34t-3.5 -40v-146q0 -38 -5 -57q-8 -32 -33 -51q-18 -15 -42.5 -20.5t-48.5 -5.5h-56v90h10q57 0 68 48q4 18 4 41v127q0 49 14 77q21 43 76 50q-55 8 -76 51q-14 28 -14 78v127q0 50 -15 68q-18 21 -57 21h-10v90h56
q26 0 48.5 -5t45 -22.5t30.5 -49.5q5 -19 5 -57v-146q0 -27 2.5 -41.5t14.5 -31.5t28 -26.5t38 -9.5v-90z" />
    <glyph glyph-name="asciitilde" unicode="~" horiz-adv-x="600" 
d="M552 348q-32 -59 -61 -85q-36 -32 -83 -32q-31 0 -71 14q-27 9 -61.5 26.5t-47 21.5t-29.5 4q-27 0 -49.5 -23.5t-37.5 -58.5l-64 74q29 62 68.5 93t80.5 31q44 0 140 -45q18 -9 36 -15t34 -6q21 0 38 14q21 17 43 60z" />
    <glyph glyph-name="c128" horiz-adv-x="700" 
d="M670 227q0 -101 -68 -164t-177 -63h-50v133h51q48 0 77.5 25.5t29.5 68.5q0 44 -29.5 69.5t-77.5 25.5h-144v-322h-137v607h-137v133h491v-133h-217v-152h143q127 0 191 -72q54 -61 54 -156z" />
    <glyph glyph-name="c129" horiz-adv-x="440" 
d="M412 870l-242 -90l-37 99l242 101zM438 607h-233v-607h-137v740h370v-133z" />
    <glyph glyph-name="quotesinglbase" unicode="&#x201a;" horiz-adv-x="280" 
d="M206 5v-12q0 -30 -5 -47q-8 -29 -31 -50q-39 -36 -95 -36v67q25 0 41 14.5t16 41.5v17h-59v133h133v-128z" />
    <glyph glyph-name="florin" unicode="&#x192;" horiz-adv-x="380" 
d="M373 738l-229 -125l-50 92l225 135zM368 436h-181v-436h-133v554h314v-118z" />
    <glyph glyph-name="quotedblbase" unicode="&#x201e;" horiz-adv-x="480" 
d="M410 5v-12q0 -30 -5 -47q-8 -29 -31 -50q-39 -36 -95 -36v67q25 0 41 14.5t16 41.5v17h-59v133h133v-128zM203 5v-12q0 -30 -5 -47q-8 -29 -31 -50q-39 -36 -95 -36v67q25 0 41 14.5t16 41.5v17h-59v133h133v-128z" />
    <glyph glyph-name="ellipsis" unicode="&#x2026;" horiz-adv-x="1000" 
d="M899 0h-133v133h133v-133zM566 0h-133v133h133v-133zM233 0h-133v133h133v-133z" />
    <glyph glyph-name="dagger" unicode="&#x2020;" 
d="M509 436h-161v-564h-133v564h-163v118h163v186h133v-186h161v-118z" />
    <glyph glyph-name="daggerdbl" unicode="&#x2021;" 
d="M509 259h-163v-387h-133v387h-161v118h161v97h-161v118h161v148h133v-148h163v-118h-163v-97h163v-118z" />
    <glyph glyph-name="circumflex" unicode="&#x2c6;" horiz-adv-x="540" 
d="M470 620h-145l-54 64l-55 -64h-145l148 138h105z" />
    <glyph glyph-name="perthousand" unicode="&#x2030;" horiz-adv-x="1280" 
d="M1248 162q0 -75 -52.5 -127.5t-127.5 -52.5t-127.5 52.5t-52.5 127.5t52.5 127.5t127.5 52.5t127.5 -52.5t52.5 -127.5zM835 162q0 -75 -52.5 -127.5t-127.5 -52.5t-127.5 52.5t-52.5 127.5t52.5 127.5t127.5 52.5t127.5 -52.5t52.5 -127.5zM631 740l-306 -740h-102
l306 740h102zM380 573q0 -75 -52.5 -127.5t-126.5 -52.5t-127 53t-53 127q0 75 52.5 127.5t127.5 52.5q74 0 126.5 -52.5t52.5 -127.5zM1137 162q0 29 -20 49t-49 20t-49 -20t-20 -49t20 -49t49 -20t49 20t20 49zM724 162q0 29 -20 49t-49 20t-49 -20t-20 -49t20 -49t49 -20
t49 20t20 49zM269 573q0 29 -20 49t-48 20t-48.5 -20.5t-20.5 -48.5q0 -27 20 -48t48 -21q27 0 48 20t21 49z" />
    <glyph glyph-name="Scaron" unicode="&#x160;" horiz-adv-x="1000" 
d="M980 227q0 -101 -68 -164t-177 -63h-247v514l-310 -514h-161l471 740h137v-285h110q127 0 191 -72q54 -61 54 -156zM843 227q0 44 -29.5 69.5t-77.5 25.5h-111v-189h111q48 0 77.5 25.5t29.5 68.5z" />
    <glyph glyph-name="guilsinglleft" unicode="&#x2039;" horiz-adv-x="240" 
d="M175 136l-139 131v101l139 130v-123l-67 -57l67 -59v-123z" />
    <glyph glyph-name="OE" unicode="&#x152;" horiz-adv-x="980" 
d="M960 227q0 -101 -68 -164t-177 -63h-247v322h-263v-322h-137v740h137v-285h263v285h137v-285h110q127 0 191 -72q54 -61 54 -156zM823 227q0 44 -29.5 69.5t-77.5 25.5h-111v-189h111q48 0 77.5 25.5t29.5 68.5z" />
    <glyph glyph-name="c141" horiz-adv-x="620" 
d="M492 870l-242 -90l-37 99l242 101zM599 0h-164l-230 324v-324h-137v740h137v-321l230 321h164l-279 -364z" />
    <glyph glyph-name="c142" horiz-adv-x="720" 
d="M664 0h-137v218q0 30 -2 40q-5 28 -24 45q-15 13 -37.5 18t-45.5 5h-136v-326h-137v607h-137v133h491v-133h-217v-148h135q57 0 92 -7q52 -11 88 -40q40 -33 56 -86q11 -37 11 -90v-236z" />
    <glyph glyph-name="c143" horiz-adv-x="679" 
d="M611 0h-203v-185h-137v185h-203v740h137v-607h269v607h137v-740z" />
    <glyph glyph-name="c144" horiz-adv-x="600" 
d="M546 48q0 -59 -14 -99t-50 -71.5t-84 -47t-100 -15.5v126q43 0 69 15q46 26 46 92v170q0 62 -17 98q-27 58 -94 58q-71 0 -98 -58q-17 -36 -17 -102v-214h-133v595h-100v114h100v31h133v-31h267v-114h-267v-155q28 33 67 46.5t76 13.5q98 0 157 -66t59 -182v-204z" />
    <glyph glyph-name="quoteleft" unicode="&#x2018;" horiz-adv-x="280" 
d="M206 480h-133v128q0 46 7.5 68t28.5 41q39 36 95 36v-67q-25 0 -41 -14.5t-16 -41.5v-17h59v-133z" />
    <glyph glyph-name="quoteright" unicode="&#x2019;" horiz-adv-x="280" 
d="M206 611v-12q0 -30 -5 -47q-8 -29 -31 -50q-39 -36 -95 -36v67q25 0 41 14.5t16 41.5v17h-59v133h133v-128z" />
    <glyph glyph-name="quotedblleft" unicode="&#x201c;" horiz-adv-x="480" 
d="M410 480h-133v128q0 46 7.5 68t28.5 41q39 36 95 36v-67q-25 0 -41 -14.5t-16 -41.5v-17h59v-133zM203 480h-133v128q0 46 7.5 68t28.5 41q39 36 95 36v-67q-25 0 -41 -14.5t-16 -41.5v-17h59v-133z" />
    <glyph glyph-name="quotedblright" unicode="&#x201d;" horiz-adv-x="480" 
d="M410 612v-12q0 -30 -5 -47q-8 -29 -31 -50q-39 -36 -95 -36v67q25 0 41 14.5t16 41.5v17h-59v133h133v-128zM203 612v-12q0 -30 -5 -47q-8 -29 -31 -50q-39 -36 -95 -36v67q25 0 41 14.5t16 41.5v17h-59v133h133v-128z" />
    <glyph glyph-name="bullet" unicode="&#x2022;" horiz-adv-x="600" 
d="M500 318q0 -83 -58.5 -141.5t-141.5 -58.5t-141.5 58.5t-58.5 141.5t58.5 141.5t141.5 58.5t141.5 -58.5t58.5 -141.5z" />
    <glyph glyph-name="endash" unicode="&#x2013;" horiz-adv-x="500" 
d="M500 259h-500v118h500v-118z" />
    <glyph glyph-name="emdash" unicode="&#x2014;" horiz-adv-x="1000" 
d="M1000 259h-1000v118h1000v-118z" />
    <glyph glyph-name="tilde" unicode="&#x2dc;" horiz-adv-x="480" 
d="M405 664q-27 -25 -54 -36q-20 -8 -42 -8q-11 0 -22 1.5t-40 11.5q-13 4 -27.5 8.5t-30.5 4.5q-21 0 -36 -6t-30 -16l-49 88q21 19 47.5 28t52.5 9q31 0 71 -18q22 -10 41 -10q22 0 38 7.5t31 20.5z" />
    <glyph glyph-name="trademark" unicode="&#x2122;" horiz-adv-x="1000" 
d="M929 336h-88v326l-119 -326h-52l-119 326v-326h-88v404h142l91 -239l91 239h142v-404zM414 662h-123v-326h-97v326h-123v78h343v-78z" />
    <glyph glyph-name="scaron" unicode="&#x161;" horiz-adv-x="840" 
d="M812 180q0 -82 -52 -131t-134 -49h-252v386l-208 -386h-154l315 554h180v-194h119q92 0 141 -54q45 -49 45 -126zM679 180q0 25 -13 41q-18 21 -54 21h-105v-124h105q31 0 49 15.5t18 46.5z" />
    <glyph glyph-name="guilsinglright" unicode="&#x203a;" horiz-adv-x="240" 
d="M204 267l-139 -131v123l68 59l-68 57v123l139 -130v-101z" />
    <glyph glyph-name="oe" unicode="&#x153;" horiz-adv-x="860" 
d="M832 180q0 -82 -52 -131t-134 -49h-252v242h-207v-242h-133v554h133v-194h207v194h133v-194h119q92 0 141 -54q45 -49 45 -126zM699 180q0 25 -13 41q-18 21 -54 21h-105v-124h105q31 0 49 15.5t18 46.5z" />
    <glyph glyph-name="c157" horiz-adv-x="580" 
d="M473 738l-229 -125l-50 92l225 135zM555 0h-168l-200 266v-266h-133v554h133v-254l198 254h158l-221 -260z" />
    <glyph glyph-name="c158" horiz-adv-x="600" 
d="M546 0h-133v222q0 84 -36 122q-28 30 -75 30q-71 0 -98 -57q-17 -35 -17 -95v-222h-133v595h-100v114h100v31h133v-31h267v-114h-267v-155q28 33 67 46.5t76 13.5q98 0 157 -66t59 -182v-252z" />
    <glyph glyph-name="Ydieresis" unicode="&#x178;" horiz-adv-x="580" 
d="M526 0h-171v-160h-130v160h-171v554h133v-436h206v436h133v-554z" />
    <glyph glyph-name="nonbreakingspace" unicode="&#xa0;" horiz-adv-x="500" 
 />
    <glyph glyph-name="exclamdown" unicode="&#xa1;" horiz-adv-x="700" 
d="M550 920q-10 -62 -58 -101t-122 -39q-73 0 -121.5 39t-58.5 101h115q4 -25 22 -37.5t43 -12.5t43 12t22 38h115zM691 740l-335 -740h-150l87 188l-284 552h166l195 -394l171 394h150z" />
    <glyph glyph-name="cent" unicode="&#xa2;" horiz-adv-x="580" 
d="M460 756q-8 -59 -53.5 -97.5t-111.5 -38.5q-67 0 -111.5 38.5t-53.5 97.5h100q6 -22 24 -34t41 -12q53 0 65 46h100zM568 554l-318 -739h-143l102 237l-203 502h151l127 -355l133 355h151z" />
    <glyph glyph-name="sterling" unicode="&#xa3;" horiz-adv-x="480" 
d="M412 218q0 -114 -48 -173q-51 -63 -151 -63q-84 0 -145 54t-61 134h137q6 -55 63 -55q44 0 59 33q9 20 9 61v531h137v-522z" />
    <glyph glyph-name="currency" unicode="&#xa4;" 
d="M534 227l-77 -79l-44 44q-30 -21 -63.5 -30t-65.5 -9q-46 0 -77 10t-57 29l-44 -44l-79 79l44 44q-21 35 -29 66.5t-8 61.5q0 35 8 67t29 64l-44 43l79 80l44 -44q36 23 67 30.5t62 7.5q45 0 76 -10t58 -28l44 44l77 -80l-44 -43q15 -22 24 -47q14 -39 14 -83
q0 -30 -6 -56q-9 -37 -32 -73zM404 400q0 50 -35.5 86.5t-87.5 36.5q-53 0 -88 -36t-35 -87q0 -50 35.5 -86.5t87.5 -36.5q53 0 88 36t35 87z" />
    <glyph glyph-name="yen" unicode="&#xa5;" horiz-adv-x="460" 
d="M458 607h-253v-607h-137v740h253v130h137v-263z" />
    <glyph glyph-name="brokenbar" unicode="&#xa6;" horiz-adv-x="600" 
d="M362 444h-119v296h119v-296zM362 0h-119v296h119v-296z" />
    <glyph glyph-name="section" unicode="&#xa7;" 
d="M529 290q0 -35 -14 -64q-18 -39 -63 -76q27 -23 38 -56t11 -67q0 -76 -58.5 -129.5t-155.5 -53.5q-96 0 -160 54q-69 58 -69 157h132q0 -42 25.5 -68.5t67.5 -26.5q43 0 65.5 20.5t22.5 46.5q0 28 -22 48q-12 11 -41 26l-158 83q-55 28 -80 62q-30 40 -30 101q0 35 11 65
q19 52 70 81q-16 21 -22.5 45t-6.5 49q0 65 44 110q54 56 158 56q93 0 149 -53t56 -135h-125q0 35 -23.5 53.5t-57.5 18.5q-37 0 -56 -19q-15 -15 -15 -36q0 -24 20 -43q16 -16 48 -32l143 -72q36 -18 57 -41q39 -43 39 -104zM405 275q0 24 -18 41q-14 13 -48 30l-147 76
q-13 -12 -20.5 -27.5t-7.5 -36.5q0 -20 15.5 -38t41.5 -31l152 -78q14 15 23 31t9 33z" />
    <glyph glyph-name="dieresis" unicode="&#xa8;" horiz-adv-x="520" 
d="M438 794h-137v126h137v-126zM232 794h-137v126h137v-126zM465 0h-397v740h397v-133h-260v-171h249v-133h-249v-170h260v-133z" />
    <glyph glyph-name="copyright" unicode="&#xa9;" horiz-adv-x="740" 
d="M756 368q0 -160 -113 -273t-272 -113q-160 0 -273 113t-113 273t112.5 272.5t273.5 112.5q159 0 272 -113t113 -272zM684 368q0 129 -92 221t-221 92q-130 0 -222 -92t-92 -221q0 -130 91 -222t223 -92q129 0 221 91t92 223zM577 463h-90q-37 54 -111 54
q-60 0 -99.5 -42.5t-39.5 -102.5q0 -61 40 -104t99 -43q29 0 55 10q32 13 52 40h92q-28 -58 -78.5 -92t-119.5 -34q-105 0 -166 73q-54 64 -54 150q0 93 63 157t155 64q69 0 122 -34.5t80 -95.5z" />
    <glyph glyph-name="ordfeminine" unicode="&#xaa;" horiz-adv-x="780" 
d="M760 528h-156q-33 44 -81 68t-113 24q-91 0 -155 -56q-56 -49 -78 -129h374v-130h-375q20 -87 89 -140q65 -50 146 -50q58 0 106 21.5t80 64.5h159q-47 -100 -135.5 -159.5t-207.5 -59.5q-179 0 -288 129q-95 113 -95 259q0 145 94 256q108 127 285 127q121 0 213 -59.5
t138 -165.5z" />
    <glyph glyph-name="guillemotleft" unicode="&#xab;" horiz-adv-x="460" 
d="M388 136l-139 131v101l139 130v-123l-67 -57l67 -59v-123zM175 136l-139 131v101l139 130v-123l-67 -57l67 -59v-123z" />
    <glyph glyph-name="logicalnot" unicode="&#xac;" horiz-adv-x="600" 
d="M552 182h-118v173h-386v118h504v-291z" />
    <glyph glyph-name="minus" unicode="&#xad;" horiz-adv-x="420" 
d="M349 259h-278v118h278v-118z" />
    <glyph glyph-name="registered" unicode="&#xae;" horiz-adv-x="740" 
d="M756 368q0 -160 -113 -273t-272 -113q-160 0 -273 113t-113 273t112.5 272.5t273.5 112.5q159 0 272 -113t113 -272zM684 368q0 129 -92 221t-221 92q-130 0 -222 -92t-92 -221q0 -130 91 -222t223 -92q129 0 221 91t92 223zM528 152h-98l-107 158l-1 -158h-80v427h125
q94 0 134 -51q27 -34 27 -84q0 -53 -32.5 -93.5t-83.5 -40.5zM448 439q0 26 -14 42q-20 22 -65 22h-47v-127h47q45 0 64 21q15 17 15 42z" />
    <glyph glyph-name="macron" unicode="&#xaf;" horiz-adv-x="340" 
d="M332 794h-137v126h137v-126zM146 794h-137v126h137v-126zM239 0h-137v740h137v-740z" />
    <glyph glyph-name="degree" unicode="&#xb0;" horiz-adv-x="400" 
d="M350 590q0 -62 -44 -106t-106 -44t-106 44t-44 106t44 106t106 44t106 -44t44 -106zM290 590q0 37 -26.5 63.5t-64.5 26.5q-37 0 -63 -26t-26 -64q0 -37 26.5 -63.5t63.5 -26.5t63.5 26.5t26.5 63.5z" />
    <glyph glyph-name="plusminus" unicode="&#xb1;" horiz-adv-x="600" 
d="M552 317h-194v-143h-116v143h-194v116h194v137h116v-137h194v-116zM552 0h-504v116h504v-116z" />
    <glyph glyph-name="twosuperior" unicode="&#xb2;" horiz-adv-x="280" 
d="M208 794h-137v126h137v-126zM208 0h-137v740h137v-740z" />
    <glyph glyph-name="threesuperior" unicode="&#xb3;" horiz-adv-x="240" 
d="M187 618h-133v122h133v-122zM187 0h-133v554h133v-554z" />
    <glyph glyph-name="acute" unicode="&#xb4;" horiz-adv-x="400" 
d="M388 436h-201v-436h-133v554h204v116h130v-234z" />
    <glyph glyph-name="mu" unicode="&#xb5;" horiz-adv-x="576" 
d="M528 0h-122v59q-22 -36 -56 -56.5t-76 -20.5q-29 0 -52 9t-41 22v-198h-133v739h133v-276q0 -72 14 -108q24 -62 92 -62q67 0 92 61q16 39 16 109v276h133v-554z" />
    <glyph glyph-name="paragraph" unicode="&#xb6;" horiz-adv-x="600" 
d="M527 -128h-103v760h-82v-760h-100v458q-87 0 -146 57t-59 147q0 92 61 149t161 57h268v-868z" />
    <glyph glyph-name="periodcentered" unicode="&#xb7;" horiz-adv-x="280" 
d="M205 251h-133v133h133v-133z" />
    <glyph glyph-name="periodcentered" unicode="&#x2219;" horiz-adv-x="280" 
d="M205 251h-133v133h133v-133z" />
    <glyph glyph-name="cedilla" unicode="&#xb8;" horiz-adv-x="640" 
d="M497 620h-133v120h133v-120zM287 620h-133v120h133v-120zM610 277v-15q0 -21 -3 -44h-434q13 -50 52.5 -80t92.5 -30q35 0 65 11q36 14 59 41h150q-37 -87 -109.5 -132.5t-159.5 -45.5q-138 0 -221 98q-72 85 -72 193q0 110 72 197q84 102 223 102q126 0 205.5 -84.5
t79.5 -210.5zM471 336q-14 52 -54 81t-92 29q-54 0 -95.5 -30t-58.5 -80h300z" />
    <glyph glyph-name="onesuperior" unicode="&#xb9;" horiz-adv-x="1100" 
d="M1078 560q0 -75 -52.5 -127.5t-126.5 -52.5t-127 53t-53 127q0 75 52.5 127.5t127.5 52.5q74 0 126.5 -52.5t52.5 -127.5zM1063 206h-330v120h330v-120zM669 0h-137l-325 500v-500h-137v740h137l325 -500v500h137v-740zM978 560q0 33 -23.5 56.5t-55.5 23.5
q-33 0 -56.5 -23.5t-23.5 -56.5q0 -32 23 -56t56 -24t56.5 23.5t23.5 56.5z" />
    <glyph glyph-name="ordmasculine" unicode="&#xba;" horiz-adv-x="640" 
d="M610 180q-31 -90 -103.5 -144t-171.5 -54q-143 0 -229 97q-76 85 -76 202q0 112 73 195q84 96 227 96q104 0 178 -55t102 -147h-150q-22 47 -70 65q-29 11 -62 11q-59 0 -101 -31t-54 -79h249v-118h-249q17 -53 60.5 -81.5t96.5 -28.5t90 27q25 18 40 45h150z" />
    <glyph glyph-name="guillemotright" unicode="&#xbb;" horiz-adv-x="460" 
d="M424 267l-139 -131v123l68 59l-68 57v123l139 -130v-101zM211 267l-139 -131v123l68 59l-68 57v123l139 -130v-101z" />
    <glyph glyph-name="onequarter" unicode="&#xbc;" horiz-adv-x="260" 
d="M206 618h-133v122h133v-122zM206 28q0 -129 -79 -182q-47 -31 -109 -31v129q36 -5 48 27q7 18 7 57v526h133v-526z" />
    <glyph glyph-name="onehalf" unicode="&#xbd;" horiz-adv-x="520" 
d="M493 216q0 -99 -67.5 -166.5t-172.5 -67.5q-92 0 -161 56q-78 64 -78 170h143q0 -42 29 -67.5t70 -25.5q45 0 72.5 26.5t27.5 66.5q0 75 -89 110q-46 16 -91 33q-74 31 -109 92q-26 46 -26 100q0 81 55 141q63 69 165 69q100 0 160 -66q54 -60 54 -144h-141q0 31 -18 52
q-21 25 -59 25q-39 0 -59 -22.5t-20 -55.5q0 -56 75 -83q45 -16 90 -31q53 -21 88 -56q62 -61 62 -156z" />
    <glyph glyph-name="threequarters" unicode="&#xbe;" horiz-adv-x="440" 
d="M420 173q0 -83 -55 -137t-145 -54q-92 0 -149 59q-52 54 -52 133h133q0 -30 21 -48t52 -18q28 0 45 15t17 42q0 23 -14 37q-10 10 -36 20q-14 5 -21 7l-36 12q-59 19 -90 45q-51 44 -51 115q0 65 45 114q52 57 142 57q76 0 127.5 -47.5t51.5 -122.5h-133q-2 18 -14 31
t-36 13q-25 0 -37.5 -13.5t-12.5 -33.5q0 -17 10 -28.5t28 -19.5q9 -4 22 -7.5t25 -6.5q72 -17 107 -43q56 -42 56 -121z" />
    <glyph glyph-name="questiondown" unicode="&#xbf;" horiz-adv-x="340" 
d="M322 620h-133v120h133v-120zM152 620h-133v120h133v-120zM237 0h-133v554h133v-554z" />
    <glyph glyph-name="Agrave" unicode="&#xc0;" horiz-adv-x="740" 
d="M733 0h-151l-76 191h-272l-76 -191h-151l308 740h110zM454 324l-84 216l-84 -216h168z" />
    <glyph glyph-name="Agrave" unicode="&#x410;" horiz-adv-x="740" 
d="M733 0h-151l-76 191h-272l-76 -191h-151l308 740h110zM454 324l-84 216l-84 -216h168z" />
    <glyph glyph-name="Aacute" unicode="&#xc1;" horiz-adv-x="600" 
d="M568 227q0 -101 -68 -164t-177 -63h-255v740h432v-133h-295v-152h118q118 0 181.5 -61.5t63.5 -166.5zM431 227q0 35 -21 60q-29 35 -86 35h-119v-189h119q53 0 80 28t27 66z" />
    <glyph glyph-name="Aacute" unicode="&#x411;" horiz-adv-x="600" 
d="M568 227q0 -101 -68 -164t-177 -63h-255v740h432v-133h-295v-152h118q118 0 181.5 -61.5t63.5 -166.5zM431 227q0 35 -21 60q-29 35 -86 35h-119v-189h119q53 0 80 28t27 66z" />
    <glyph glyph-name="Acircumflex" unicode="&#xc2;" horiz-adv-x="580" 
d="M548 225q0 -96 -58 -153q-74 -72 -237 -72h-185v740h178q122 0 187 -47q70 -51 70 -148q0 -59 -33 -101q-19 -24 -48 -40q60 -20 93 -68t33 -111zM366 531q0 47 -37 65q-23 11 -60 11h-64v-152h64q45 0 71 19.5t26 56.5zM411 226q0 35 -18 58q-29 38 -99 38h-89v-189h89
q36 0 64 12q53 23 53 81z" />
    <glyph glyph-name="Acircumflex" unicode="&#x412;" horiz-adv-x="580" 
d="M548 225q0 -96 -58 -153q-74 -72 -237 -72h-185v740h178q122 0 187 -47q70 -51 70 -148q0 -59 -33 -101q-19 -24 -48 -40q60 -20 93 -68t33 -111zM366 531q0 47 -37 65q-23 11 -60 11h-64v-152h64q45 0 71 19.5t26 56.5zM411 226q0 35 -18 58q-29 38 -99 38h-89v-189h89
q36 0 64 12q53 23 53 81z" />
    <glyph glyph-name="Atilde" unicode="&#xc3;" horiz-adv-x="440" 
d="M438 607h-233v-607h-137v740h370v-133z" />
    <glyph glyph-name="Atilde" unicode="&#x413;" horiz-adv-x="440" 
d="M438 607h-233v-607h-137v740h370v-133z" />
    <glyph glyph-name="Adieresis" unicode="&#xc4;" horiz-adv-x="820" 
d="M814 -140h-137v140h-534v-140h-137v273h71l274 607h120l274 -607h69v-273zM594 133l-183 417l-183 -417h366z" />
    <glyph glyph-name="Adieresis" unicode="&#x414;" horiz-adv-x="820" 
d="M814 -140h-137v140h-534v-140h-137v273h71l274 607h120l274 -607h69v-273zM594 133l-183 417l-183 -417h366z" />
    <glyph glyph-name="Aring" unicode="&#xc5;" horiz-adv-x="520" 
d="M465 0h-397v740h397v-133h-260v-171h249v-133h-249v-170h260v-133z" />
    <glyph glyph-name="Aring" unicode="&#x415;" horiz-adv-x="520" 
d="M465 0h-397v740h397v-133h-260v-171h249v-133h-249v-170h260v-133z" />
    <glyph glyph-name="AE" unicode="&#xc6;" horiz-adv-x="940" 
d="M918 0h-164l-216 324v-324h-137v324l-216 -324h-164l265 380l-259 360h158l216 -321v321h137v-321l216 321h158l-259 -356z" />
    <glyph glyph-name="AE" unicode="&#x416;" horiz-adv-x="940" 
d="M918 0h-164l-216 324v-324h-137v324l-216 -324h-164l265 380l-259 360h158l216 -321v321h137v-321l216 321h158l-259 -356z" />
    <glyph glyph-name="Ccedilla" unicode="&#xc7;" 
d="M530 207q0 -101 -70.5 -159.5t-184.5 -58.5q-108 0 -176.5 64t-68.5 175h137q0 -39 21 -67q30 -39 92 -39q58 0 85.5 27.5t27.5 67.5q0 42 -23 68q-27 31 -80 31h-70v133h60q41 0 65 22t24 61q0 42 -23 65t-64 23q-40 0 -65.5 -19t-25.5 -53h-137q0 88 57 144
q62 61 172 61q98 0 160.5 -55.5t62.5 -147.5q0 -54 -29 -96.5t-77 -64.5q55 -14 90 -58q40 -50 40 -124z" />
    <glyph glyph-name="Ccedilla" unicode="&#x417;" 
d="M530 207q0 -101 -70.5 -159.5t-184.5 -58.5q-108 0 -176.5 64t-68.5 175h137q0 -39 21 -67q30 -39 92 -39q58 0 85.5 27.5t27.5 67.5q0 42 -23 68q-27 31 -80 31h-70v133h60q41 0 65 22t24 61q0 42 -23 65t-64 23q-40 0 -65.5 -19t-25.5 -53h-137q0 88 57 144
q62 61 172 61q98 0 160.5 -55.5t62.5 -147.5q0 -54 -29 -96.5t-77 -64.5q55 -14 90 -58q40 -50 40 -124z" />
    <glyph glyph-name="Egrave" unicode="&#xc8;" horiz-adv-x="740" 
d="M672 0h-137v520l-330 -520h-137v740h137v-520l330 520h137v-740z" />
    <glyph glyph-name="Egrave" unicode="&#x418;" horiz-adv-x="740" 
d="M672 0h-137v520l-330 -520h-137v740h137v-520l330 520h137v-740z" />
    <glyph glyph-name="Eacute" unicode="&#xc9;" horiz-adv-x="740" 
d="M550 920q-10 -62 -58 -101t-122 -39q-73 0 -121.5 39t-58.5 101h115q4 -25 22 -37.5t43 -12.5t43 12t22 38h115zM672 0h-137v520l-330 -520h-137v740h137v-520l330 520h137v-740z" />
    <glyph glyph-name="Eacute" unicode="&#x419;" horiz-adv-x="740" 
d="M550 920q-10 -62 -58 -101t-122 -39q-73 0 -121.5 39t-58.5 101h115q4 -25 22 -37.5t43 -12.5t43 12t22 38h115zM672 0h-137v520l-330 -520h-137v740h137v-520l330 520h137v-740z" />
    <glyph glyph-name="Ecircumflex" unicode="&#xca;" horiz-adv-x="620" 
d="M599 0h-164l-230 324v-324h-137v740h137v-321l230 321h164l-279 -364z" />
    <glyph glyph-name="Ecircumflex" unicode="&#x41a;" horiz-adv-x="620" 
d="M599 0h-164l-230 324v-324h-137v740h137v-321l230 321h164l-279 -364z" />
    <glyph glyph-name="Edieresis" unicode="&#xcb;" horiz-adv-x="720" 
d="M713 0h-151l-202 550l-202 -550h-151l293 740h120z" />
    <glyph glyph-name="Edieresis" unicode="&#x41b;" horiz-adv-x="720" 
d="M713 0h-151l-202 550l-202 -550h-151l293 740h120z" />
    <glyph glyph-name="Igrave" unicode="&#xcc;" horiz-adv-x="920" 
d="M852 0h-137v554l-197 -554h-116l-197 554v-554h-137v740h186l206 -566l206 566h186v-740z" />
    <glyph glyph-name="Igrave" unicode="&#x41c;" horiz-adv-x="920" 
d="M852 0h-137v554l-197 -554h-116l-197 554v-554h-137v740h186l206 -566l206 566h186v-740z" />
    <glyph glyph-name="Iacute" unicode="&#xcd;" horiz-adv-x="680" 
d="M612 0h-137v310h-270v-310h-137v740h137v-297h270v297h137v-740z" />
    <glyph glyph-name="Iacute" unicode="&#x41d;" horiz-adv-x="680" 
d="M612 0h-137v310h-270v-310h-137v740h137v-297h270v297h137v-740z" />
    <glyph glyph-name="Icircumflex" unicode="&#xce;" horiz-adv-x="840" 
d="M810 366q0 -161 -112.5 -272.5t-277.5 -111.5t-277.5 111.5t-112.5 272.5q0 162 112.5 274.5t277.5 112.5t277.5 -112.5t112.5 -274.5zM673 369q0 104 -72.5 177.5t-180.5 73.5q-109 0 -181 -73t-72 -178q0 -106 73 -180t179 -74q109 0 181.5 74.5t72.5 179.5z" />
    <glyph glyph-name="Icircumflex" unicode="&#x41e;" horiz-adv-x="840" 
d="M810 366q0 -161 -112.5 -272.5t-277.5 -111.5t-277.5 111.5t-112.5 272.5q0 162 112.5 274.5t277.5 112.5t277.5 -112.5t112.5 -274.5zM673 369q0 104 -72.5 177.5t-180.5 73.5q-109 0 -181 -73t-72 -178q0 -106 73 -180t179 -74q109 0 181.5 74.5t72.5 179.5z" />
    <glyph glyph-name="Idieresis" unicode="&#xcf;" horiz-adv-x="680" 
d="M612 0h-137v607h-270v-607h-137v740h544v-740z" />
    <glyph glyph-name="Idieresis" unicode="&#x41f;" horiz-adv-x="680" 
d="M612 0h-137v607h-270v-607h-137v740h544v-740z" />
    <glyph glyph-name="Eth" unicode="&#xd0;" 
d="M540 509q0 -90 -51 -149q-69 -80 -214 -80h-70v-280h-137v740h207q154 0 221 -89q44 -59 44 -142zM403 510q0 59 -45 82q-29 15 -72 15h-81v-194h81q61 0 89 25t28 72z" />
    <glyph glyph-name="Eth" unicode="&#x420;" 
d="M540 509q0 -90 -51 -149q-69 -80 -214 -80h-70v-280h-137v740h207q154 0 221 -89q44 -59 44 -142zM403 510q0 59 -45 82q-29 15 -72 15h-81v-194h81q61 0 89 25t28 72z" />
    <glyph glyph-name="Ntilde" unicode="&#xd1;" horiz-adv-x="780" 
d="M760 528h-156q-33 42 -73 64q-50 28 -113 28q-108 0 -179.5 -74.5t-71.5 -175.5q0 -106 72.5 -180.5t179.5 -74.5q52 0 98 21t80 65h159q-47 -101 -133 -158q-91 -61 -208 -61q-179 0 -289 130q-96 114 -96 258q0 141 95 253q111 130 292 130q116 0 206 -59t137 -166z
" />
    <glyph glyph-name="Ntilde" unicode="&#x421;" horiz-adv-x="780" 
d="M760 528h-156q-33 42 -73 64q-50 28 -113 28q-108 0 -179.5 -74.5t-71.5 -175.5q0 -106 72.5 -180.5t179.5 -74.5q52 0 98 21t80 65h159q-47 -101 -133 -158q-91 -61 -208 -61q-179 0 -289 130q-96 114 -96 258q0 141 95 253q111 130 292 130q116 0 206 -59t137 -166z
" />
    <glyph glyph-name="Ograve" unicode="&#xd2;" horiz-adv-x="420" 
d="M416 607h-137v-607h-137v607h-137v133h411v-133z" />
    <glyph glyph-name="Ograve" unicode="&#x422;" horiz-adv-x="420" 
d="M416 607h-137v-607h-137v607h-137v133h411v-133z" />
    <glyph glyph-name="Oacute" unicode="&#xd3;" horiz-adv-x="700" 
d="M691 740l-335 -740h-150l87 188l-284 552h166l195 -394l171 394h150z" />
    <glyph glyph-name="Oacute" unicode="&#x423;" horiz-adv-x="700" 
d="M691 740l-335 -740h-150l87 188l-284 552h166l195 -394l171 394h150z" />
    <glyph glyph-name="Ocircumflex" unicode="&#xd4;" horiz-adv-x="860" 
d="M831 387q0 -139 -93.5 -229.5t-238.5 -90.5v-104h-137v104q-145 0 -238.5 90.5t-93.5 229.5t93.5 229.5t238.5 90.5v93h137v-93q145 0 238.5 -90.5t93.5 -229.5zM694 387q0 78 -52 131q-55 56 -143 56v-374q89 0 142 54t53 133zM362 200v374q-89 0 -142 -54t-53 -133
q0 -78 53.5 -132.5t141.5 -54.5z" />
    <glyph glyph-name="Ocircumflex" unicode="&#x424;" horiz-adv-x="860" 
d="M831 387q0 -139 -93.5 -229.5t-238.5 -90.5v-104h-137v104q-145 0 -238.5 90.5t-93.5 229.5t93.5 229.5t238.5 90.5v93h137v-93q145 0 238.5 -90.5t93.5 -229.5zM694 387q0 78 -52 131q-55 56 -143 56v-374q89 0 142 54t53 133zM362 200v374q-89 0 -142 -54t-53 -133
q0 -78 53.5 -132.5t141.5 -54.5z" />
    <glyph glyph-name="Otilde" unicode="&#xd5;" horiz-adv-x="680" 
d="M676 0h-160l-176 256l-175 -256h-160l255 370l-255 370h160l175 -257l176 257h160l-256 -370z" />
    <glyph glyph-name="Otilde" unicode="&#x425;" horiz-adv-x="680" 
d="M676 0h-160l-176 256l-175 -256h-160l255 370l-255 370h160l175 -257l176 257h160l-256 -370z" />
    <glyph glyph-name="Odieresis" unicode="&#xd6;" horiz-adv-x="700" 
d="M696 -140h-137v140h-491v740h137v-607h270v607h137v-607h84v-273z" />
    <glyph glyph-name="Odieresis" unicode="&#x426;" horiz-adv-x="700" 
d="M696 -140h-137v140h-491v740h137v-607h270v607h137v-607h84v-273z" />
    <glyph glyph-name="multiply" unicode="&#xd7;" horiz-adv-x="620" 
d="M552 0h-137v280h-126q-57 0 -92 7q-52 11 -88 40q-40 33 -56 86q-11 37 -11 90v237h137v-219q0 -30 3.5 -49t22.5 -36q15 -13 37.5 -18t45.5 -5h127v327h137v-740z" />
    <glyph glyph-name="multiply" unicode="&#x427;" horiz-adv-x="620" 
d="M552 0h-137v280h-126q-57 0 -92 7q-52 11 -88 40q-40 33 -56 86q-11 37 -11 90v237h137v-219q0 -30 3.5 -49t22.5 -36q15 -13 37.5 -18t45.5 -5h127v327h137v-740z" />
    <glyph glyph-name="Oslash" unicode="&#xd8;" horiz-adv-x="1000" 
d="M931 0h-863v740h137v-607h226v607h137v-607h226v607h137v-740z" />
    <glyph glyph-name="Oslash" unicode="&#x428;" horiz-adv-x="1000" 
d="M931 0h-863v740h137v-607h226v607h137v-607h226v607h137v-740z" />
    <glyph glyph-name="Ugrave" unicode="&#xd9;" horiz-adv-x="1020" 
d="M1015 -140h-137v140h-810v740h137v-607h226v607h137v-607h226v607h137v-607h84v-273z" />
    <glyph glyph-name="Ugrave" unicode="&#x429;" horiz-adv-x="1020" 
d="M1015 -140h-137v140h-810v740h137v-607h226v607h137v-607h226v607h137v-607h84v-273z" />
    <glyph glyph-name="Uacute" unicode="&#xda;" horiz-adv-x="680" 
d="M660 227q0 -101 -68 -164t-177 -63h-247v607h-160v133h297v-285h110q127 0 191 -72q54 -61 54 -156zM523 227q0 44 -29.5 69.5t-77.5 25.5h-111v-189h111q48 0 77.5 25.5t29.5 68.5z" />
    <glyph glyph-name="Uacute" unicode="&#x42a;" horiz-adv-x="680" 
d="M660 227q0 -101 -68 -164t-177 -63h-247v607h-160v133h297v-285h110q127 0 191 -72q54 -61 54 -156zM523 227q0 44 -29.5 69.5t-77.5 25.5h-111v-189h111q48 0 77.5 25.5t29.5 68.5z" />
    <glyph glyph-name="Ucircumflex" unicode="&#xdb;" horiz-adv-x="840" 
d="M772 0h-137v740h137v-740zM560 227q0 -101 -68 -164t-177 -63h-247v740h137v-285h110q127 0 191 -72q54 -61 54 -156zM423 227q0 44 -29.5 69.5t-77.5 25.5h-111v-189h111q48 0 77.5 25.5t29.5 68.5z" />
    <glyph glyph-name="Ucircumflex" unicode="&#x42b;" horiz-adv-x="840" 
d="M772 0h-137v740h137v-740zM560 227q0 -101 -68 -164t-177 -63h-247v740h137v-285h110q127 0 191 -72q54 -61 54 -156zM423 227q0 44 -29.5 69.5t-77.5 25.5h-111v-189h111q48 0 77.5 25.5t29.5 68.5z" />
    <glyph glyph-name="Udieresis" unicode="&#xdc;" horiz-adv-x="580" 
d="M560 227q0 -101 -68 -164t-177 -63h-247v740h137v-285h110q127 0 191 -72q54 -61 54 -156zM423 227q0 44 -29.5 69.5t-77.5 25.5h-111v-189h111q48 0 77.5 25.5t29.5 68.5z" />
    <glyph glyph-name="Udieresis" unicode="&#x42c;" horiz-adv-x="580" 
d="M560 227q0 -101 -68 -164t-177 -63h-247v740h137v-285h110q127 0 191 -72q54 -61 54 -156zM423 227q0 44 -29.5 69.5t-77.5 25.5h-111v-189h111q48 0 77.5 25.5t29.5 68.5z" />
    <glyph glyph-name="Yacute" unicode="&#xdd;" horiz-adv-x="780" 
d="M750 370q0 -148 -92 -259q-107 -129 -291 -129q-120 0 -207.5 58.5t-135.5 160.5h159q32 -43 79.5 -64.5t106.5 -21.5q84 0 148 49q70 53 87 141h-335v130h334q-21 81 -77 130q-63 55 -156 55q-49 0 -87 -13q-64 -22 -107 -79h-156q46 106 137.5 165.5t213.5 59.5
q179 0 286 -126q93 -110 93 -257z" />
    <glyph glyph-name="Yacute" unicode="&#x42d;" horiz-adv-x="780" 
d="M750 370q0 -148 -92 -259q-107 -129 -291 -129q-120 0 -207.5 58.5t-135.5 160.5h159q32 -43 79.5 -64.5t106.5 -21.5q84 0 148 49q70 53 87 141h-335v130h334q-21 81 -77 130q-63 55 -156 55q-49 0 -87 -13q-64 -22 -107 -79h-156q46 106 137.5 165.5t213.5 59.5
q179 0 286 -126q93 -110 93 -257z" />
    <glyph glyph-name="Thorn" unicode="&#xde;" horiz-adv-x="1120" 
d="M1090 366q0 -161 -111.5 -272.5t-273.5 -111.5q-134 0 -241 82q-119 91 -140 244h-119v-308h-137v740h137v-295h123q26 140 137 226q105 82 240 82q163 0 274 -113t111 -274zM953 369q0 104 -71.5 177.5t-176.5 73.5t-176.5 -73.5t-71.5 -177.5q0 -105 71.5 -179.5
t175.5 -74.5q106 0 177.5 74.5t71.5 179.5z" />
    <glyph glyph-name="Thorn" unicode="&#x42e;" horiz-adv-x="1120" 
d="M1090 366q0 -161 -111.5 -272.5t-273.5 -111.5q-134 0 -241 82q-119 91 -140 244h-119v-308h-137v740h137v-295h123q26 140 137 226q105 82 240 82q163 0 274 -113t111 -274zM953 369q0 104 -71.5 177.5t-176.5 73.5t-176.5 -73.5t-71.5 -177.5q0 -105 71.5 -179.5
t175.5 -74.5q106 0 177.5 74.5t71.5 179.5z" />
    <glyph glyph-name="germandbls" unicode="&#xdf;" horiz-adv-x="600" 
d="M532 0h-137v287l-200 -287h-160l204 273q-88 11 -142 69q-57 62 -57 156q0 88 45 148q70 94 233 94h214v-740zM395 387v220h-81q-75 0 -109 -34q-28 -28 -28 -76t27 -75q34 -35 110 -35h81z" />
    <glyph glyph-name="germandbls" unicode="&#x42f;" horiz-adv-x="600" 
d="M532 0h-137v287l-200 -287h-160l204 273q-88 11 -142 69q-57 62 -57 156q0 88 45 148q70 94 233 94h214v-740zM395 387v220h-81q-75 0 -109 -34q-28 -28 -28 -76t27 -75q34 -35 110 -35h81z" />
    <glyph glyph-name="agrave" unicode="&#xe0;" horiz-adv-x="660" 
d="M606 0h-122v75q-33 -45 -81.5 -69t-105.5 -24q-110 0 -188 78q-83 83 -83 212t79.5 214.5t195.5 85.5q120 0 181 -96l2 78h122v-554zM481 278q0 73 -43.5 120.5t-115.5 47.5q-71 0 -117 -49t-46 -125q0 -71 45.5 -117.5t117.5 -46.5q71 0 115 47t44 123z" />
    <glyph glyph-name="agrave" unicode="&#x430;" horiz-adv-x="660" 
d="M606 0h-122v75q-33 -45 -81.5 -69t-105.5 -24q-110 0 -188 78q-83 83 -83 212t79.5 214.5t195.5 85.5q120 0 181 -96l2 78h122v-554zM481 278q0 73 -43.5 120.5t-115.5 47.5q-71 0 -117 -49t-46 -125q0 -71 45.5 -117.5t117.5 -46.5q71 0 115 47t44 123z" />
    <glyph glyph-name="aacute" unicode="&#xe1;" horiz-adv-x="640" 
d="M614 277q0 -130 -82.5 -212.5t-216.5 -82.5q-121 0 -192 64q-56 50 -80 141q-17 64 -17 141q0 181 75 283q57 78 155 108q55 17 123 17l212 4v-118l-215 -4q-82 0 -136 -28q-84 -43 -100 -146q36 49 89 75.5t122 26.5q115 0 189 -74t74 -195zM481 268q0 75 -43.5 117.5
t-114.5 42.5q-69 0 -113.5 -43.5t-44.5 -116.5q0 -74 43 -117t115 -43t115 44t43 116z" />
    <glyph glyph-name="aacute" unicode="&#x431;" horiz-adv-x="640" 
d="M614 277q0 -130 -82.5 -212.5t-216.5 -82.5q-121 0 -192 64q-56 50 -80 141q-17 64 -17 141q0 181 75 283q57 78 155 108q55 17 123 17l212 4v-118l-215 -4q-82 0 -136 -28q-84 -43 -100 -146q36 49 89 75.5t122 26.5q115 0 189 -74t74 -195zM481 268q0 75 -43.5 117.5
t-114.5 42.5q-69 0 -113.5 -43.5t-44.5 -116.5q0 -74 43 -117t115 -43t115 44t43 116z" />
    <glyph glyph-name="acircumflex" unicode="&#xe2;" horiz-adv-x="500" 
d="M478 165q0 -70 -46 -115q-51 -50 -141 -50h-237v554h244q78 0 122 -47q38 -41 38 -98q0 -39 -23 -69t-61 -46q49 -14 76.5 -48.5t27.5 -80.5zM328 390q0 20 -11 33q-14 17 -43 17h-87v-100h87q22 0 38 13t16 37zM348 170q0 19 -10 33q-17 23 -56 23h-95v-112h95
q36 0 53 19q13 15 13 37z" />
    <glyph glyph-name="acircumflex" unicode="&#x432;" horiz-adv-x="500" 
d="M478 165q0 -70 -46 -115q-51 -50 -141 -50h-237v554h244q78 0 122 -47q38 -41 38 -98q0 -39 -23 -69t-61 -46q49 -14 76.5 -48.5t27.5 -80.5zM328 390q0 20 -11 33q-14 17 -43 17h-87v-100h87q22 0 38 13t16 37zM348 170q0 19 -10 33q-17 23 -56 23h-95v-112h95
q36 0 53 19q13 15 13 37z" />
    <glyph glyph-name="atilde" unicode="&#xe3;" horiz-adv-x="380" 
d="M368 436h-181v-436h-133v554h314v-118z" />
    <glyph glyph-name="atilde" unicode="&#x433;" horiz-adv-x="380" 
d="M368 436h-181v-436h-133v554h314v-118z" />
    <glyph glyph-name="adieresis" unicode="&#xe4;" horiz-adv-x="680" 
d="M669 -140h-130v140h-398v-140h-130v258h66l203 436h120l203 -436h66v-258zM453 118l-113 256l-113 -256h226z" />
    <glyph glyph-name="adieresis" unicode="&#x434;" horiz-adv-x="680" 
d="M669 -140h-130v140h-398v-140h-130v258h66l203 436h120l203 -436h66v-258zM453 118l-113 256l-113 -256h226z" />
    <glyph glyph-name="aring" unicode="&#xe5;" horiz-adv-x="640" 
d="M610 277v-15q0 -21 -3 -44h-434q13 -50 52.5 -80t92.5 -30q35 0 65 11q36 14 59 41h150q-37 -87 -109.5 -132.5t-159.5 -45.5q-138 0 -221 98q-72 85 -72 193q0 110 72 197q84 102 223 102q126 0 205.5 -84.5t79.5 -210.5zM471 336q-14 52 -54 81t-92 29q-54 0 -95.5 -30
t-58.5 -80h300z" />
    <glyph glyph-name="aring" unicode="&#x435;" horiz-adv-x="640" 
d="M610 277v-15q0 -21 -3 -44h-434q13 -50 52.5 -80t92.5 -30q35 0 65 11q36 14 59 41h150q-37 -87 -109.5 -132.5t-159.5 -45.5q-138 0 -221 98q-72 85 -72 193q0 110 72 197q84 102 223 102q126 0 205.5 -84.5t79.5 -210.5zM471 336q-14 52 -54 81t-92 29q-54 0 -95.5 -30
t-58.5 -80h300z" />
    <glyph glyph-name="ae" unicode="&#xe6;" horiz-adv-x="840" 
d="M824 0h-157l-180 266v-266h-133v266l-180 -266h-157l202 290l-190 264h157l168 -254v254h133v-254l168 254h157l-190 -264z" />
    <glyph glyph-name="ae" unicode="&#x436;" horiz-adv-x="840" 
d="M824 0h-157l-180 266v-266h-133v266l-180 -266h-157l202 290l-190 264h157l168 -254v254h133v-254l168 254h157l-190 -264z" />
    <glyph glyph-name="ccedilla" unicode="&#xe7;" horiz-adv-x="460" 
d="M431 163q0 -81 -55 -131t-147 -50q-112 0 -164 70q-40 54 -40 135h133q0 -33 17 -54q21 -25 59 -25q28 0 46 15t18 43q0 36 -24 50q-14 8 -35 8h-31v114h25q31 0 44.5 15.5t13.5 38.5q0 33 -21 46q-13 8 -35 8q-27 0 -44 -15.5t-19 -40.5h-133q0 75 52.5 128.5
t140.5 53.5q93 0 144 -48q45 -42 45 -107q0 -41 -24.5 -72.5t-65.5 -45.5q49 -12 74.5 -49t25.5 -87z" />
    <glyph glyph-name="ccedilla" unicode="&#x437;" horiz-adv-x="460" 
d="M431 163q0 -81 -55 -131t-147 -50q-112 0 -164 70q-40 54 -40 135h133q0 -33 17 -54q21 -25 59 -25q28 0 46 15t18 43q0 36 -24 50q-14 8 -35 8h-31v114h25q31 0 44.5 15.5t13.5 38.5q0 33 -21 46q-13 8 -35 8q-27 0 -44 -15.5t-19 -40.5h-133q0 75 52.5 128.5
t140.5 53.5q93 0 144 -48q45 -42 45 -107q0 -41 -24.5 -72.5t-65.5 -45.5q49 -12 74.5 -49t25.5 -87z" />
    <glyph glyph-name="egrave" unicode="&#xe8;" horiz-adv-x="620" 
d="M566 0h-133v359l-246 -359h-133v554h133v-359l246 359h133v-554z" />
    <glyph glyph-name="egrave" unicode="&#x438;" horiz-adv-x="620" 
d="M566 0h-133v359l-246 -359h-133v554h133v-359l246 359h133v-554z" />
    <glyph glyph-name="eacute" unicode="&#xe9;" horiz-adv-x="620" 
d="M475 756q-8 -59 -53.5 -97.5t-111.5 -38.5q-67 0 -111.5 38.5t-53.5 97.5h100q6 -22 24 -34t41 -12q53 0 65 46h100zM566 0h-133v359l-246 -359h-133v554h133v-359l246 359h133v-554z" />
    <glyph glyph-name="eacute" unicode="&#x439;" horiz-adv-x="620" 
d="M475 756q-8 -59 -53.5 -97.5t-111.5 -38.5q-67 0 -111.5 38.5t-53.5 97.5h100q6 -22 24 -34t41 -12q53 0 65 46h100zM566 0h-133v359l-246 -359h-133v554h133v-359l246 359h133v-554z" />
    <glyph glyph-name="ecircumflex" unicode="&#xea;" horiz-adv-x="580" 
d="M555 0h-168l-200 266v-266h-133v554h133v-254l198 254h158l-221 -260z" />
    <glyph glyph-name="ecircumflex" unicode="&#x43a;" horiz-adv-x="580" 
d="M555 0h-168l-200 266v-266h-133v554h133v-254l198 254h158l-221 -260z" />
    <glyph glyph-name="edieresis" unicode="&#xeb;" horiz-adv-x="580" 
d="M576 0h-148l-138 374l-138 -374h-148l226 554h120z" />
    <glyph glyph-name="edieresis" unicode="&#x43b;" horiz-adv-x="580" 
d="M576 0h-148l-138 374l-138 -374h-148l226 554h120z" />
    <glyph glyph-name="igrave" unicode="&#xec;" horiz-adv-x="780" 
d="M726 0h-133v407l-148 -407h-110l-148 407v-407h-133v554h193l143 -394l143 394h193v-554z" />
    <glyph glyph-name="igrave" unicode="&#x43c;" horiz-adv-x="780" 
d="M726 0h-133v407l-148 -407h-110l-148 407v-407h-133v554h193l143 -394l143 394h193v-554z" />
    <glyph glyph-name="iacute" unicode="&#xed;" horiz-adv-x="580" 
d="M526 0h-133v232h-206v-232h-133v554h133v-204h206v204h133v-554z" />
    <glyph glyph-name="iacute" unicode="&#x43d;" horiz-adv-x="580" 
d="M526 0h-133v232h-206v-232h-133v554h133v-204h206v204h133v-554z" />
    <glyph glyph-name="icircumflex" unicode="&#xee;" horiz-adv-x="640" 
d="M614 276q0 -122 -84 -208t-210 -86q-125 0 -209.5 85.5t-84.5 208.5t83.5 209.5t210.5 86.5q126 0 210 -86t84 -210zM481 276q0 71 -44 120.5t-117 49.5q-72 0 -116.5 -49.5t-44.5 -120.5t44 -119.5t117 -48.5q71 0 116 49t45 119z" />
    <glyph glyph-name="icircumflex" unicode="&#x43e;" horiz-adv-x="640" 
d="M614 276q0 -122 -84 -208t-210 -86q-125 0 -209.5 85.5t-84.5 208.5t83.5 209.5t210.5 86.5q126 0 210 -86t84 -210zM481 276q0 71 -44 120.5t-117 49.5q-72 0 -116.5 -49.5t-44.5 -120.5t44 -119.5t117 -48.5q71 0 116 49t45 119z" />
    <glyph glyph-name="idieresis" unicode="&#xef;" horiz-adv-x="580" 
d="M526 0h-133v436h-206v-436h-133v554h472v-554z" />
    <glyph glyph-name="idieresis" unicode="&#x43f;" horiz-adv-x="580" 
d="M526 0h-133v436h-206v-436h-133v554h472v-554z" />
    <glyph glyph-name="eth" unicode="&#xf0;" horiz-adv-x="660" 
d="M634 277q0 -120 -73 -204q-79 -91 -205 -91q-44 0 -81 14q-51 19 -86 64l-2 -245h-133v739h122v-72q33 51 92 74q42 16 88 16q117 0 197.5 -81.5t80.5 -213.5zM501 278q0 64 -37 111q-45 57 -122 57q-72 0 -117.5 -47.5t-45.5 -121.5q0 -78 44.5 -123.5t113.5 -45.5
q72 0 118 48t46 122z" />
    <glyph glyph-name="eth" unicode="&#x440;" horiz-adv-x="660" 
d="M634 277q0 -120 -73 -204q-79 -91 -205 -91q-44 0 -81 14q-51 19 -86 64l-2 -245h-133v739h122v-72q33 51 92 74q42 16 88 16q117 0 197.5 -81.5t80.5 -213.5zM501 278q0 64 -37 111q-45 57 -122 57q-72 0 -117.5 -47.5t-45.5 -121.5q0 -78 44.5 -123.5t113.5 -45.5
q72 0 118 48t46 122z" />
    <glyph glyph-name="ntilde" unicode="&#xf1;" horiz-adv-x="640" 
d="M610 180q-32 -91 -102.5 -144.5t-171.5 -53.5q-146 0 -231 97q-75 85 -75 202q0 111 72 194q84 97 229 97q103 0 177 -55t102 -147h-150q-19 38 -52.5 57t-78.5 19q-77 0 -121.5 -48.5t-44.5 -118.5q0 -73 45 -122t121 -49q47 0 79 18t52 54h150z" />
    <glyph glyph-name="ntilde" unicode="&#x441;" horiz-adv-x="640" 
d="M610 180q-32 -91 -102.5 -144.5t-171.5 -53.5q-146 0 -231 97q-75 85 -75 202q0 111 72 194q84 97 229 97q103 0 177 -55t102 -147h-150q-19 38 -52.5 57t-78.5 19q-77 0 -121.5 -48.5t-44.5 -118.5q0 -73 45 -122t121 -49q47 0 79 18t52 54h150z" />
    <glyph glyph-name="ograve" unicode="&#xf2;" horiz-adv-x="420" 
d="M409 436h-133v-436h-133v436h-133v118h399v-118z" />
    <glyph glyph-name="ograve" unicode="&#x442;" horiz-adv-x="420" 
d="M409 436h-133v-436h-133v436h-133v118h399v-118z" />
    <glyph glyph-name="oacute" unicode="&#xf3;" horiz-adv-x="580" 
d="M568 554l-318 -739h-143l102 237l-203 502h151l127 -355l133 355h151z" />
    <glyph glyph-name="oacute" unicode="&#x443;" horiz-adv-x="580" 
d="M568 554l-318 -739h-143l102 237l-203 502h151l127 -355l133 355h151z" />
    <glyph glyph-name="ocircumflex" unicode="&#xf4;" horiz-adv-x="820" 
d="M791 277q0 -107 -76 -193q-90 -102 -238 -102v-167h-133v167q-148 0 -237 101q-77 87 -77 194q0 118 85 204q90 91 229 91v168h133v-168q139 0 229 -91q85 -86 85 -204zM658 277q0 71 -42 120q-49 57 -139 57v-354q75 0 128 50t53 127zM344 100v354q-89 0 -138 -57
q-43 -50 -43 -120q0 -76 53.5 -126.5t127.5 -50.5z" />
    <glyph glyph-name="ocircumflex" unicode="&#x444;" horiz-adv-x="820" 
d="M791 277q0 -107 -76 -193q-90 -102 -238 -102v-167h-133v167q-148 0 -237 101q-77 87 -77 194q0 118 85 204q90 91 229 91v168h133v-168q139 0 229 -91q85 -86 85 -204zM658 277q0 71 -42 120q-49 57 -139 57v-354q75 0 128 50t53 127zM344 100v354q-89 0 -138 -57
q-43 -50 -43 -120q0 -76 53.5 -126.5t127.5 -50.5z" />
    <glyph glyph-name="otilde" unicode="&#xf5;" 
d="M556 0h-164l-112 179l-112 -179h-164l187 284l-172 270h155l105 -166l105 166h155l-176 -270z" />
    <glyph glyph-name="otilde" unicode="&#x445;" 
d="M556 0h-164l-112 179l-112 -179h-164l187 284l-172 270h155l105 -166l105 166h155l-176 -270z" />
    <glyph glyph-name="odieresis" unicode="&#xf6;" horiz-adv-x="620" 
d="M612 -140h-130v140h-428v554h133v-436h208v436h133v-436h84v-258z" />
    <glyph glyph-name="odieresis" unicode="&#x446;" horiz-adv-x="620" 
d="M612 -140h-130v140h-428v554h133v-436h208v436h133v-436h84v-258z" />
    <glyph glyph-name="divide" unicode="&#xf7;" horiz-adv-x="520" 
d="M466 0h-133v190h-78q-152 0 -197 75q-22 36 -22 132v157h133v-157q0 -43 9 -58q18 -31 77 -31h78v246h133v-554z" />
    <glyph glyph-name="divide" unicode="&#x447;" horiz-adv-x="520" 
d="M466 0h-133v190h-78q-152 0 -197 75q-22 36 -22 132v157h133v-157q0 -43 9 -58q18 -31 77 -31h78v246h133v-554z" />
    <glyph glyph-name="oslash" unicode="&#xf8;" horiz-adv-x="840" 
d="M789 0h-735v554h133v-436h168v436h133v-436h168v436h133v-554z" />
    <glyph glyph-name="oslash" unicode="&#x448;" horiz-adv-x="840" 
d="M789 0h-735v554h133v-436h168v436h133v-436h168v436h133v-554z" />
    <glyph glyph-name="ugrave" unicode="&#xf9;" horiz-adv-x="880" 
d="M873 -140h-130v140h-689v554h133v-436h168v436h133v-436h168v436h133v-436h84v-258z" />
    <glyph glyph-name="ugrave" unicode="&#x449;" horiz-adv-x="880" 
d="M873 -140h-130v140h-689v554h133v-436h168v436h133v-436h168v436h133v-436h84v-258z" />
    <glyph glyph-name="uacute" unicode="&#xfa;" horiz-adv-x="600" 
d="M572 180q0 -82 -52 -131t-134 -49h-252v436h-129v118h262v-194h119q92 0 141 -54q45 -49 45 -126zM439 180q0 25 -13 41q-18 21 -54 21h-105v-124h105q31 0 49 15.5t18 46.5z" />
    <glyph glyph-name="uacute" unicode="&#x44a;" horiz-adv-x="600" 
d="M572 180q0 -82 -52 -131t-134 -49h-252v436h-129v118h262v-194h119q92 0 141 -54q45 -49 45 -126zM439 180q0 25 -13 41q-18 21 -54 21h-105v-124h105q31 0 49 15.5t18 46.5z" />
    <glyph glyph-name="ucircumflex" unicode="&#xfb;" horiz-adv-x="740" 
d="M686 0h-133v554h133v-554zM492 180q0 -82 -52 -131t-134 -49h-252v554h133v-194h119q92 0 141 -54q45 -49 45 -126zM359 180q0 25 -13 41q-18 21 -54 21h-105v-124h105q31 0 49 15.5t18 46.5z" />
    <glyph glyph-name="ucircumflex" unicode="&#x44b;" horiz-adv-x="740" 
d="M686 0h-133v554h133v-554zM492 180q0 -82 -52 -131t-134 -49h-252v554h133v-194h119q92 0 141 -54q45 -49 45 -126zM359 180q0 25 -13 41q-18 21 -54 21h-105v-124h105q31 0 49 15.5t18 46.5z" />
    <glyph glyph-name="udieresis" unicode="&#xfc;" horiz-adv-x="520" 
d="M492 180q0 -82 -52 -131t-134 -49h-252v554h133v-194h119q92 0 141 -54q45 -49 45 -126zM359 180q0 25 -13 41q-18 21 -54 21h-105v-124h105q31 0 49 15.5t18 46.5z" />
    <glyph glyph-name="udieresis" unicode="&#x44c;" horiz-adv-x="520" 
d="M492 180q0 -82 -52 -131t-134 -49h-252v554h133v-194h119q92 0 141 -54q45 -49 45 -126zM359 180q0 25 -13 41q-18 21 -54 21h-105v-124h105q31 0 49 15.5t18 46.5z" />
    <glyph glyph-name="yacute" unicode="&#xfd;" horiz-adv-x="640" 
d="M610 281q0 -116 -76 -202q-86 -97 -229 -97q-100 0 -171.5 53t-103.5 145h150q23 -44 67 -61q28 -11 63 -11q62 0 102.5 30t56.5 80h-229v118h229q-16 55 -59.5 82.5t-97.5 27.5q-46 0 -80 -20t-52 -56h-150q28 92 101.5 147t178.5 55q141 0 226 -96q74 -84 74 -195z" />
    <glyph glyph-name="yacute" unicode="&#x44d;" horiz-adv-x="640" 
d="M610 281q0 -116 -76 -202q-86 -97 -229 -97q-100 0 -171.5 53t-103.5 145h150q23 -44 67 -61q28 -11 63 -11q62 0 102.5 30t56.5 80h-229v118h229q-16 55 -59.5 82.5t-97.5 27.5q-46 0 -80 -20t-52 -56h-150q28 92 101.5 147t178.5 55q141 0 226 -96q74 -84 74 -195z" />
    <glyph glyph-name="thorn" unicode="&#xfe;" horiz-adv-x="880" 
d="M854 276q0 -124 -83 -209t-211 -85q-117 0 -196.5 69.5t-95.5 176.5h-81v-228h-133v554h133v-200h87q25 98 101.5 158t184.5 60q128 0 211 -86t83 -210zM721 276q0 71 -44 120.5t-117 49.5q-72 0 -117 -49.5t-45 -120.5q0 -70 45 -119t117 -49q71 0 116 49t45 119z" />
    <glyph glyph-name="thorn" unicode="&#x44e;" horiz-adv-x="880" 
d="M854 276q0 -124 -83 -209t-211 -85q-117 0 -196.5 69.5t-95.5 176.5h-81v-228h-133v554h133v-200h87q25 98 101.5 158t184.5 60q128 0 211 -86t83 -210zM721 276q0 71 -44 120.5t-117 49.5q-72 0 -117 -49.5t-45 -120.5q0 -70 45 -119t117 -49q71 0 116 49t45 119z" />
    <glyph glyph-name="ydieresis" unicode="&#xff;" horiz-adv-x="540" 
d="M486 0h-133v213l-164 -213h-166l167 196q-68 8 -107.5 56.5t-39.5 117.5q0 76 52 128q56 56 150 56h241v-554zM353 297v139h-103q-34 0 -54 -20t-20 -53t21 -49.5t53 -16.5h103z" />
    <glyph glyph-name="ydieresis" unicode="&#x44f;" horiz-adv-x="540" 
d="M486 0h-133v213l-164 -213h-166l167 196q-68 8 -107.5 56.5t-39.5 117.5q0 76 52 128q56 56 150 56h241v-554zM353 297v139h-103q-34 0 -54 -20t-20 -53t21 -49.5t53 -16.5h103z" />
    </font>
</defs>
</svg>
